<svg xmlns="http://www.w3.org/2000/svg" viewBox="0 0 214.85 313.13"><defs><style>.a57d414c-09f5-4414-b889-ceb35c4bb63e{fill:none;stroke:#bcbec0;stroke-miterlimit:10;stroke-width:16px;}.b05e6828-a366-4cff-8310-bb069dc8f50b{fill:#53b848;}</style></defs><title>icon-maison</title><g id="e7a17d40-128e-43ba-a42c-52f14acc14ab" data-name="maison dark"><polygon class="a57d414c-09f5-4414-b889-ceb35c4bb63e" points="8.36 119.44 8.36 238.15 189.93 238.15 189.93 119.44 98.97 48.66 8.36 119.44"/></g><g id="a65331d6-15d3-489b-ad4e-6d730011f86e" data-name="Calque 1"><path class="b05e6828-a366-4cff-8310-bb069dc8f50b" d="M90.42,283.92C76.49,306.76,60.85,303.84,60,305.39A22.9,22.9,0,0,1,40,317C20,316.59,7.22,302.68,7.21,301.07c0-2.28,11.57-12.56,33.43-12.82,12.67-.15,17.67,9.48,19,9.32,6.11-.76,10.14-5.31,13.74-10,11.55-15,18.44-78.79,28.89-129.24S122.55,63.74,138.86,37c13.93-22.84,29.57-19.92,30.43-21.47A22.93,22.93,0,0,1,189.23,3.89c20.07.42,32.83,14.33,32.84,16,0,2.28-11.57,12.56-33.43,12.82-12.67.15-17.67-9.49-19-9.32-6.12.76-10.14,5.31-13.75,10-11.54,15-21.4,87.21-29.17,127C121.55,186.58,106.73,257.17,90.42,283.92Z" transform="translate(-7.21 -3.89)"/></g><g id="a275daa4-011b-4569-b694-53adb9dc06aa" data-name="maison bot dark"><line class="a57d414c-09f5-4414-b889-ceb35c4bb63e" x1="8.36" y1="238.15" x2="189.93" y2="238.15"/></g></svg>